<?xml version="1.0" encoding="utf-8"?>
<!-- Generator: Adobe Illustrator 25.0.1, SVG Export Plug-In . SVG Version: 6.00 Build 0)  -->
<svg version="1.1" id="Layer_2_1_" xmlns="http://www.w3.org/2000/svg" xmlns:xlink="http://www.w3.org/1999/xlink" x="0px" y="0px"
	 viewBox="0 0 526 525" style="enable-background:new 0 0 526 525;" xml:space="preserve">
<style type="text/css">
	.st0{fill:#3C57A6;}
</style>
<g id="xs95Dn_1_">
	<g>
		<path class="st0" d="M357.4,417.1c0.1,1.3-0.1,2.8,0.4,3.9c1.2,2.8,0.1,4.4-2,6c-2.6,2-5,4.3-7.6,6.4c-2.4,1.9-4,1.8-6-0.6
			c-29.2-34-58.3-68-87.5-101.9c-29.9-34.9-59.8-69.7-89.8-104.6c-19.1-22.2-38.2-44.5-57.2-66.7c-2.2-2.6-2.1-4.3,0.5-6.6
			c3-2.5,5.9-5.2,9-7.6c0.7-0.5,2-0.8,2.8-0.5c8.6,3,16.4,1.7,23.3-4.3c6.2-5.4,12.5-10.7,18.6-16.3c6.2-5.6,8.2-12.7,6.9-20.8
			c-0.2-1,0.3-2.4,1-3.2c1.6-1.7,3.5-3.1,5.3-4.6c2.6-2.1,4.2-2,6.4,0.6c6.1,7.1,12.2,14.3,18.4,21.4c33.9,39.5,67.7,79,101.6,118.4
			c30.6,35.6,61.1,71.3,91.7,106.9c7.4,8.7,14.8,17.3,22.3,26c2.6,3,2.3,4.5-0.5,7.2c-3.4,3.3-6.3,5-11.6,3
			c-6.8-2.6-13.6-0.3-19.3,4.5c-6.3,5.3-12.5,10.8-18.7,16.2C360.2,404.5,357.4,410.1,357.4,417.1z"/>
		<path class="st0" d="M127,210.9c60,69.9,119.7,139.5,179.7,209.5c-1.6,0.9-2.9,1.7-4.2,2.4c-24.1,12.7-49.5,21.9-76.3,26.9
			c-12.4,2.4-25,3.7-37.5,4.7c-28.7,2.4-54.4-5.6-77.1-23.2c-11.1-8.6-18.5-19.9-23.9-32.6c-6.8-16.1-9.1-33-8.8-50.4
			c0.6-36.7,11.4-70.8,27.9-103.2c5.6-10.9,12.4-21.2,18.6-31.8C125.8,212.4,126.4,211.8,127,210.9z"/>
		<path class="st0" d="M405.3,328.9C346.2,260,287.6,191.6,228.7,123c1.2-0.7,2.2-1.3,3.2-1.8c22.9-11.2,46.8-19.8,71.9-24.5
			c15.7-2.9,31.6-4.3,47.6-3.1c18.4,1.3,35.9,5.6,51.8,15.3c21.8,13.3,34.6,33,40.6,57.5c3.6,14.5,4.2,29.2,3.2,44.1
			c-2.6,35.5-14.1,68.3-30.8,99.4C412.9,316.2,409.1,322.3,405.3,328.9z"/>
		<path class="st0" d="M465.3,473.4c-0.7,1-1.2,2-1.9,2.7c-6,5.3-12,10.5-18.1,15.7c-2.1,1.8-3.9,1.6-5.8-0.6
			c-15.3-17.6-30.6-35.2-45.9-52.7c-5.2-6-10.5-12.1-15.7-18.1c-2.5-2.9-2.5-4.4,0.3-6.9c5.7-5,11.4-9.9,17.2-14.9
			c2.5-2.1,3.9-2,6.1,0.5c20.7,23.7,41.3,47.5,61.9,71.2C464.1,471.2,464.6,472.3,465.3,473.4z"/>
		<path class="st0" d="M84,31.5c1.5,1.3,2.9,2.3,4,3.7c7.5,8.6,15,17.2,22.5,25.8c12.7,14.6,25.5,29.3,38.2,43.9
			c2.5,2.9,2.4,4.2-0.5,6.8c-5.6,4.9-11.1,9.8-16.7,14.6c-2.6,2.3-4.3,2.2-6.5-0.4C104.5,102.5,84.1,79,63.8,55.6
			c-3.2-3.6-3.1-4.4,0.4-7.5c5.5-4.8,11-9.7,16.6-14.4C81.6,32.9,82.7,32.4,84,31.5z"/>
	</g>
</g>
</svg>
